<svg width="18" height="18" viewBox="0 0 18 18" fill="none" xmlns="http://www.w3.org/2000/svg">
<path d="M9.24992 8.38558C8.76645 8.38558 8.30278 8.19352 7.96092 7.85166C7.61906 7.5098 7.427 7.04613 7.427 6.56266C7.427 6.0792 7.61906 5.61553 7.96092 5.27367C8.30278 4.9318 8.76645 4.73975 9.24992 4.73975C9.73339 4.73975 10.1971 4.9318 10.5389 5.27367C10.8808 5.61553 11.0728 6.0792 11.0728 6.56266C11.0728 6.80205 11.0257 7.0391 10.9341 7.26026C10.8425 7.48143 10.7082 7.68239 10.5389 7.85166C10.3696 8.02093 10.1687 8.15521 9.94752 8.24682C9.72635 8.33843 9.48931 8.38558 9.24992 8.38558ZM9.24992 1.4585C7.89621 1.4585 6.59794 1.99625 5.64073 2.95347C4.68351 3.91069 4.14575 5.20895 4.14575 6.56266C4.14575 10.3908 9.24992 16.0418 9.24992 16.0418C9.24992 16.0418 14.3541 10.3908 14.3541 6.56266C14.3541 5.20895 13.8163 3.91069 12.8591 2.95347C11.9019 1.99625 10.6036 1.4585 9.24992 1.4585Z" fill="white"/>
</svg>
