<svg width="90" height="90" viewBox="0 0 90 90" fill="none" xmlns="http://www.w3.org/2000/svg">
<g clip-path="url(#clip0_91_21)">
<path d="M54.8251 9.98248C55.5368 10.1816 56.2024 10.5191 56.7837 10.9756C57.365 11.4321 57.8506 11.9987 58.2128 12.643C58.575 13.2873 58.8066 13.9966 58.8945 14.7305C58.9824 15.4644 58.9248 16.2084 58.7251 16.92L42.1088 76.1212C41.706 77.5579 40.749 78.7757 39.4483 79.5067C38.1476 80.2377 36.6098 80.4221 35.1732 80.0193C33.7365 79.6165 32.5187 78.6595 31.7877 77.3589C31.0567 76.0582 30.8723 74.5204 31.2751 73.0837L47.8913 13.875C48.0908 13.1635 48.4286 12.4984 48.8853 11.9175C49.342 11.3366 49.9086 10.8514 50.5529 10.4896C51.1971 10.1278 51.9063 9.89642 52.64 9.80876C53.3737 9.72111 54.1174 9.77886 54.8288 9.97873L54.8251 9.98248ZM28.35 25.1137C29.4034 26.1684 29.9951 27.5981 29.9951 29.0887C29.9951 30.5794 29.4034 32.009 28.35 33.0637L16.4251 45L28.3575 56.9325C29.4123 57.9877 30.0046 59.4187 30.0043 60.9107C30.0039 62.4026 29.4109 63.8334 28.3557 64.8881C27.3004 65.9428 25.8694 66.5352 24.3775 66.5348C22.8855 66.5345 21.4548 65.9415 20.4001 64.8862L4.4888 48.975C3.43542 47.9203 2.84375 46.4906 2.84375 45C2.84375 43.5093 3.43542 42.0797 4.4888 41.025L20.3963 25.1137C20.9187 24.591 21.5389 24.1764 22.2216 23.8934C22.9043 23.6105 23.6361 23.4649 24.375 23.4649C25.114 23.4649 25.8458 23.6105 26.5285 23.8934C27.2112 24.1764 27.8277 24.591 28.35 25.1137ZM61.6501 33.0637C61.0974 32.5488 60.6541 31.9278 60.3467 31.2378C60.0393 30.5478 59.8739 29.8029 59.8606 29.0476C59.8473 28.2924 59.9862 27.5422 60.2691 26.8417C60.552 26.1413 60.9731 25.5051 61.5073 24.9709C62.0414 24.4368 62.6777 24.0157 63.3781 23.7328C64.0785 23.4499 64.8287 23.311 65.584 23.3243C66.3392 23.3376 67.0841 23.5029 67.7741 23.8104C68.4641 24.1178 69.0851 24.5611 69.6001 25.1137L85.5113 41.0212C86.5658 42.0761 87.1582 43.5066 87.1582 44.9981C87.1582 46.4897 86.5658 47.9201 85.5113 48.975L69.6038 64.8862C69.0816 65.4087 68.4615 65.8232 67.7791 66.1061C67.0966 66.389 66.3651 66.5346 65.6264 66.5348C64.8876 66.535 64.1561 66.3897 63.4735 66.1071C62.7909 65.8246 62.1707 65.4104 61.6482 64.8881C61.1257 64.3658 60.7112 63.7458 60.4283 63.0634C60.1454 62.3809 59.9997 61.6494 59.9996 60.9107C59.9994 60.1719 60.1447 59.4404 60.4273 58.7578C60.7098 58.0752 61.124 57.455 61.6463 56.9325L73.5788 45L61.6501 33.0637Z" fill="#FF6464"/>
</g>
<defs>
<clipPath id="clip0_91_21">
<rect width="90" height="90" fill="white"/>
</clipPath>
</defs>
</svg>
