<svg width="18" height="18" viewBox="0 0 18 18" fill="none" xmlns="http://www.w3.org/2000/svg">
<g clip-path="url(#clip0_62_18)">
<path d="M16.216 2.91674C16.1497 2.90991 16.083 2.90991 16.0167 2.91674H2.40559C2.31835 2.91809 2.23169 2.93117 2.14795 2.95563L9.17226 9.95077L16.216 2.91674Z" fill="white"/>
<path d="M16.9355 3.59229L9.85768 10.6409C9.67552 10.822 9.42911 10.9236 9.17226 10.9236C8.91541 10.9236 8.669 10.822 8.48684 10.6409L1.47226 3.64576C1.4507 3.72501 1.43926 3.80668 1.43823 3.88881V13.611C1.43823 13.8689 1.54066 14.1162 1.72299 14.2985C1.90532 14.4808 2.15261 14.5833 2.41045 14.5833H16.0216C16.2794 14.5833 16.5267 14.4808 16.709 14.2985C16.8914 14.1162 16.9938 13.8689 16.9938 13.611V3.88881C16.9899 3.78753 16.9702 3.68748 16.9355 3.59229ZM3.07643 13.611H2.40073V12.9159L5.93476 9.41104L6.62018 10.0965L3.07643 13.611ZM16.0118 13.611H15.3313L11.7875 10.0965L12.473 9.41104L16.007 12.9159L16.0118 13.611Z" fill="white"/>
</g>
<defs>
<clipPath id="clip0_62_18">
<rect x="0.5" width="17.5" height="17.5" rx="5" fill="white"/>
</clipPath>
</defs>
</svg>
