<svg width="15" height="13" viewBox="0 0 15 13" fill="none" xmlns="http://www.w3.org/2000/svg">
<path d="M4.85 4.00913C3.78915 4.92214 3.51137 6.49523 4.47514 7.51018C5.04553 8.11086 5.69007 8.65783 6.3963 9.14122C7.61572 9.97587 9.22164 9.6994 10.3417 8.73547C10.5667 8.54182 10.9 8.47727 11.1917 8.56334C12.125 8.8287 13.1333 8.97214 14.1667 8.97214C14.625 8.97214 15 9.29488 15 9.68934V12.1924C15 12.5868 14.625 12.9096 14.1667 12.9096C6.34167 12.9096 0 7.45168 0 0.717198C0 0.322739 0.375 0 0.833333 0H3.75C4.20833 0 4.58333 0.322739 4.58333 0.717198C4.58333 1.61369 4.75 2.47433 5.05833 3.27759C5.15 3.52861 5.08333 3.80832 4.85 4.00913Z" fill="white"/>
</svg>
